<svg clip-rule="evenodd" fill-rule="evenodd" stroke-linecap="square" stroke-linejoin="round" stroke-miterlimit="2" viewBox="0 0 501 480" xmlns="http://www.w3.org/2000/svg" xmlns:xlink="http://www.w3.org/1999/xlink"><linearGradient id="a"><stop offset="0" stop-color="#468c7d"/><stop offset="1" stop-color="#4a7c96"/></linearGradient><linearGradient id="b" gradientUnits="userSpaceOnUse" x1="32.632" x2="88.556" xlink:href="#a" y1="90.9792" y2="90.9792"/><linearGradient id="c" gradientUnits="userSpaceOnUse" x1="37.8319" x2="83.1303" xlink:href="#a" y1="85.0932" y2="85.0932"/><g transform="matrix(4.16667 0 0 4.16667 .03138 -10.4375)"><path d="m88.556 27.62h-53.416l-2.508 14.432h18.524l-8.624 48.928h16.28l8.624-48.928h18.612z" fill="url(#b)"/><path d="m98.658 101.968-5.949-10.307c-.636-1.1-.509-2.482.317-3.448 3.482-4.077 6.155-8.707 7.945-13.761.424-1.198 1.557-1.999 2.828-1.999l11.901-.001c1.762-8.112 1.756-16.799-.098-25.048l-11.797.071c-1.275 0-2.41-.805-2.831-2.008-1.772-5.061-4.442-9.685-7.936-13.744-.832-.966-.962-2.352-.324-3.457l5.939-10.287c-6.183-5.577-13.703-9.919-21.733-12.436l-5.841 10.26c-.635 1.099-1.892 1.68-3.14 1.451-5.265-.967-10.615-.967-15.903 0-1.249.228-2.506-.354-3.14-1.454l-5.929-10.295c-7.945 2.557-15.469 6.894-21.648 12.602l5.971 10.202c.636 1.101.509 2.482-.317 3.448-3.482 4.077-6.155 8.707-7.945 13.762-.424 1.198-1.557 1.998-2.827 1.998l-11.902.001c-1.761 8.113-1.755 16.8.098 25.048l11.797-.071c1.275 0 2.411.806 2.832 2.009 1.771 5.06 4.441 9.684 7.935 13.743.832.966.962 2.353.324 3.457l-5.951 10.308c6.183 5.577 13.703 9.919 21.733 12.436l5.841-10.26c.635-1.099 1.892-1.68 3.14-1.451 5.265.967 10.615.967 15.903 0 1.248-.228 2.504.353 3.138 1.451l5.95 10.308c7.947-2.555 15.471-6.892 21.65-12.6-.003-.003-.028.076-.031.072z" fill="#fff" fill-rule="nonzero"/><path d="m98.658 101.968-5.949-10.307c-.636-1.1-.509-2.482.317-3.448 3.482-4.077 6.155-8.707 7.945-13.761.424-1.198 1.557-1.999 2.828-1.999l11.901-.001c1.762-8.112 1.756-16.799-.098-25.048l-11.797.071c-1.275 0-2.41-.805-2.831-2.008-1.772-5.061-4.442-9.685-7.936-13.744-.832-.966-.962-2.352-.324-3.457l5.939-10.287c-6.183-5.577-13.703-9.919-21.733-12.436l-5.841 10.26c-.635 1.099-1.892 1.68-3.14 1.451-5.265-.967-10.615-.967-15.903 0-1.249.228-2.506-.354-3.14-1.454l-5.929-10.295c-7.945 2.557-15.469 6.894-21.648 12.602l5.971 10.202c.636 1.101.509 2.482-.317 3.448-3.482 4.077-6.155 8.707-7.945 13.762-.424 1.198-1.557 1.998-2.827 1.998l-11.902.001c-1.761 8.113-1.755 16.8.098 25.048l11.797-.071c1.275 0 2.411.806 2.832 2.009 1.771 5.06 4.441 9.684 7.935 13.743.832.966.962 2.353.324 3.457l-5.951 10.308c6.183 5.577 13.703 9.919 21.733 12.436l5.841-10.26c.635-1.099 1.892-1.68 3.14-1.451 5.265.967 10.615.967 15.903 0 1.248-.228 2.504.353 3.138 1.451l5.95 10.308c7.947-2.555 15.471-6.892 21.65-12.6-.003-.003-.028.076-.031.072z" fill="none" stroke="#388d98" stroke-width="6"/><path d="m83.13 33.772h-43.267l-2.032 11.69h15.005l-6.986 39.632h13.187l6.986-39.632h15.075z" fill="url(#c)"/></g></svg>