<svg clip-rule="evenodd" fill-rule="evenodd" stroke-linejoin="round" stroke-miterlimit="2" viewBox="0 0 3183 340" xmlns="http://www.w3.org/2000/svg" xmlns:xlink="http://www.w3.org/1999/xlink"><linearGradient id="a" gradientUnits="userSpaceOnUse" x1="4.37028" x2="768.13728" y1="116.18" y2="116.18"><stop offset="0" stop-color="#468c7d"/><stop offset=".5" stop-color="#408a98"/><stop offset="1" stop-color="#4a7c96"/></linearGradient><path d="m10.434 101.426h17.651l12.853-47.973h19.008l4.073-15.388h-55.486l-4.163 15.388h19.008zm44.624 0h17.197l6.97-25.887c.784-2.836 1.901-5.024 3.349-6.563 1.448-1.538 3.379-2.308 5.793-2.308 1.75 0 3.092.453 4.028 1.358.935.905 1.403 2.172 1.403 3.802 0 .543-.045 1.176-.136 1.901-.09.724-.226 1.418-.407 2.081l-6.879 25.616h17.198l7.06-26.611c.422-1.569.77-3.092 1.041-4.571.272-1.478.408-2.881.408-4.209 0-4.526-1.253-8.101-3.757-10.726s-5.989-3.938-10.455-3.938c-2.896 0-5.537.679-7.92 2.037-2.384 1.358-4.421 2.912-6.11 4.661l6.065-22.719h-17.198zm59.377 0h17.198l13.125-48.969h-17.198zm14.03-53.404h17.922l3.44-12.672h-17.922zm14.663 53.404h17.198l3.983-14.754c1.568-5.852 3.876-10.137 6.924-12.853 3.046-2.715 6.925-4.073 11.631-4.073h1.449l4.887-18.103c-3.982-.301-7.453.529-10.409 2.489-2.957 1.962-5.612 4.693-7.965 8.192l2.625-9.867h-17.198zm72.683-.226c2.655-.935 4.873-2.218 6.653-3.847 1.779-1.629 3.107-3.499 3.983-5.612.874-2.111 1.312-4.345 1.312-6.698 0-2.051-.377-3.816-1.131-5.295-.755-1.478-1.765-2.761-3.032-3.847-1.268-1.086-2.731-2.037-4.39-2.851-1.661-.815-3.365-1.584-5.115-2.308-2.534-1.026-4.299-1.84-5.295-2.444-.995-.603-1.493-1.327-1.493-2.173 0-1.869 1.417-2.806 4.254-2.806 2.232 0 4.571.484 7.015 1.449s4.721 2.233 6.834 3.801l8.237-10.319c-2.233-1.81-5.205-3.408-8.916-4.797-3.711-1.387-7.8-2.082-12.265-2.082-3.38 0-6.397.453-9.051 1.358-2.656.905-4.888 2.127-6.698 3.666-1.811 1.539-3.2 3.38-4.164 5.521-.966 2.143-1.448 4.421-1.448 6.834 0 1.932.346 3.621 1.041 5.069.693 1.448 1.658 2.731 2.896 3.847 1.236 1.117 2.7 2.097 4.39 2.942 1.689.845 3.499 1.66 5.431 2.444 2.413.966 4.133 1.765 5.159 2.398 1.026.634 1.539 1.374 1.539 2.218 0 .905-.362 1.629-1.086 2.172s-1.81.815-3.259.815c-2.475 0-5.22-.573-8.237-1.72-3.018-1.145-5.702-2.775-8.055-4.888l-8.509 10.048c2.957 2.656 6.547 4.737 10.771 6.245 4.224 1.507 8.69 2.263 13.397 2.263 3.499 0 6.576-.469 9.232-1.403zm40.414.769c1.72-.303 3.363-.724 4.934-1.267l3.801-14.301c-2.534.905-4.708 1.357-6.517 1.357-2.595 0-3.892-1.025-3.892-3.077 0-.663.15-1.659.452-2.987l4.164-15.388h11.405l3.711-13.849h-11.405l3.349-12.4h-17.198l-3.349 12.4h-5.793l-3.711 13.849h5.793l-4.888 18.103c-.302 1.208-.529 2.324-.678 3.349-.152 1.027-.227 2.053-.227 3.078 0 3.621 1.222 6.458 3.666 8.508 2.444 2.052 6.169 3.078 11.179 3.078 1.749 0 3.485-.152 5.204-.453zm32.541 13.396c2.021-.543 3.968-1.403 5.839-2.579 1.869-1.177 3.666-2.716 5.385-4.617 1.72-1.901 3.454-4.24 5.205-7.015l30.323-48.697h-18.103l-16.474 29.418-1.992-29.418h-17.469l6.336 48.245c-.724.724-1.403 1.206-2.037 1.448-.633.24-1.373.362-2.217.362-2.294 0-4.557-.815-6.789-2.444l-7.694 12.582c1.69 1.086 3.562 1.946 5.612 2.579 2.051.634 4.526.951 7.423.951 2.412 0 4.63-.272 6.652-.815zm72.323-38.921 11.857-18.194 2.263 18.194zm-35.573 24.982h19.099l7.603-11.314h24.439l1.539 11.314h18.465l-9.866-63.813h-17.198zm78.568 0h17.198l9.504-35.12h10.681l3.62-13.577h-11.043l.272-.815c.421-1.568 1.116-2.729 2.082-3.485.964-.753 2.322-1.131 4.073-1.131.844 0 1.795.106 2.851.317 1.055.212 2.037.468 2.942.769l3.168-12.038c-1.629-.543-3.335-.951-5.114-1.222-1.781-.272-3.727-.408-5.838-.408-5.612 0-10.138 1.299-13.578 3.893-3.439 2.595-5.914 6.879-7.422 12.853l-.271.995h-5.703l-3.711 13.849h5.793zm41.004 0h17.198l9.504-35.12h10.681l3.621-13.577h-11.043l.271-.815c.422-1.568 1.116-2.729 2.082-3.485.965-.753 2.323-1.131 4.073-1.131.845 0 1.795.106 2.852.317 1.055.212 2.036.468 2.941.769l3.168-12.038c-1.629-.543-3.334-.951-5.114-1.222-1.78-.272-3.726-.408-5.838-.408-5.612 0-10.138 1.299-13.577 3.893-3.44 2.595-5.915 6.879-7.423 12.853l-.271.995h-5.703l-3.711 13.849h5.793zm38.741 0h17.198l13.124-48.969h-17.197zm14.03-53.404h17.922l3.438-12.672h-17.921zm13.214 53.404h17.198l17.741-66.076h-17.198zm29.055 0h17.198l13.125-48.969h-17.198zm14.03-53.404h17.922l3.44-12.672h-17.922zm32.947 42.588c-.905-.815-1.357-1.915-1.357-3.304 0-2.232.814-3.967 2.444-5.205 1.629-1.236 3.801-1.855 6.517-1.855 1.206 0 2.338.106 3.394.316 1.055.213 2.066.469 3.032.77l-.452 1.629c-.665 2.535-1.946 4.648-3.847 6.336-1.901 1.69-3.969 2.535-6.2 2.535-1.449 0-2.625-.408-3.531-1.222zm3.214 10.137c2.202-1.115 4.359-2.639 6.472-4.571l-1.358 5.25h16.926l7.242-26.973c.663-2.535.995-4.888.995-7.061 0-4.887-1.796-8.703-5.385-11.45-3.591-2.745-9.068-4.118-16.429-4.118-3.561 0-7.015.271-10.364.814-3.349.544-6.322 1.268-8.916 2.173l2.444 12.491c1.75-.663 3.816-1.236 6.2-1.72 2.384-.482 4.721-.724 7.015-.724 3.017 0 5.174.484 6.472 1.448 1.297.966 1.946 2.233 1.946 3.802 0 .604-.045 1.147-.135 1.629-.091.484-.197.936-.317 1.358l-.181.634c-1.932-.603-3.924-1.071-5.974-1.403-2.053-.331-4.195-.498-6.427-.498-3.259 0-6.2.393-8.825 1.176-2.625.785-4.888 1.932-6.789 3.44-1.901 1.509-3.364 3.319-4.39 5.431-1.027 2.113-1.539 4.526-1.539 7.241 0 4.104 1.268 7.347 3.802 9.731s5.823 3.575 9.866 3.575c2.897 0 5.445-.559 7.649-1.675zm58.563 1.222c1.72-.303 3.363-.724 4.933-1.267l3.802-14.301c-2.535.905-4.707 1.357-6.517 1.357-2.596 0-3.893-1.025-3.893-3.077 0-.663.15-1.659.453-2.987l4.164-15.388h11.405l3.711-13.849h-11.405l3.349-12.4h-17.198l-3.349 12.4h-5.793l-3.711 13.849h5.793l-4.888 18.103c-.303 1.208-.529 2.324-.679 3.349-.151 1.027-.226 2.053-.226 3.078 0 3.621 1.222 6.458 3.666 8.508 2.444 2.052 6.169 3.078 11.178 3.078 1.75 0 3.485-.152 5.205-.453zm35.528-29.055c1.025-2.956 2.579-5.174 4.661-6.653 2.082-1.478 4.269-2.218 6.563-2.218 2.292 0 3.982.62 5.068 1.856 1.087 1.237 1.63 2.701 1.63 4.39 0 .846-.152 1.72-.453 2.625zm31.318 8.78c.603-1.569 1.071-3.213 1.403-4.933.331-1.72.498-3.424.498-5.114 0-2.655-.407-5.205-1.222-7.649s-2.068-4.601-3.756-6.472c-1.691-1.869-3.847-3.363-6.472-4.48-2.625-1.116-5.748-1.675-9.369-1.675-4.525 0-8.599.86-12.219 2.58-3.621 1.72-6.714 3.968-9.278 6.743-2.566 2.777-4.526 5.929-5.884 9.459-1.357 3.53-2.036 7.106-2.036 10.726 0 3.32.543 6.307 1.629 8.961 1.086 2.656 2.625 4.933 4.616 6.834 1.992 1.901 4.436 3.364 7.332 4.39 2.897 1.025 6.155 1.539 9.776 1.539 4.284 0 8.056-.679 11.314-2.037 3.259-1.357 6.155-3.122 8.69-5.295l-7.966-9.413c-1.871 1.388-3.636 2.384-5.295 2.987-1.66.604-3.364.905-5.114.905-2.957 0-5.175-.724-6.653-2.173-1.479-1.448-2.308-3.408-2.489-5.883zm34.578 19.506c2.655-.935 4.872-2.218 6.653-3.847 1.779-1.629 3.107-3.499 3.982-5.612.874-2.111 1.313-4.345 1.313-6.698 0-2.051-.378-3.816-1.132-5.295-.755-1.478-1.765-2.761-3.032-3.847s-2.731-2.037-4.39-2.851c-1.66-.815-3.364-1.584-5.114-2.308-2.534-1.026-4.299-1.84-5.295-2.444-.996-.603-1.494-1.327-1.494-2.173 0-1.869 1.418-2.806 4.255-2.806 2.231 0 4.571.484 7.015 1.449s4.721 2.233 6.834 3.801l8.236-10.319c-2.233-1.81-5.204-3.408-8.915-4.797-3.711-1.387-7.8-2.082-12.265-2.082-3.38 0-6.397.453-9.052 1.358-2.656.905-4.888 2.127-6.698 3.666s-3.199 3.38-4.164 5.521c-.966 2.143-1.448 4.421-1.448 6.834 0 1.932.347 3.621 1.041 5.069.693 1.448 1.659 2.731 2.897 3.847 1.236 1.117 2.699 2.097 4.39 2.942 1.688.845 3.499 1.66 5.431 2.444 2.412.966 4.132 1.765 5.159 2.398 1.025.634 1.539 1.374 1.539 2.218 0 .905-.362 1.629-1.086 2.172-.725.543-1.811.815-3.259.815-2.475 0-5.22-.573-8.237-1.72-3.018-1.145-5.702-2.775-8.056-4.888l-8.508 10.048c2.957 2.656 6.547 4.737 10.771 6.245 4.223 1.507 8.69 2.263 13.396 2.263 3.499 0 6.577-.469 9.233-1.403z" fill="url(#a)" transform="matrix(4.16667 0 0 4.16667 -18.208348 -144.6498)"/></svg>