<?xml version="1.0" encoding="utf-8"?>
<!-- Generator: Adobe Illustrator 15.0.2, SVG Export Plug-In . SVG Version: 6.00 Build 0)  -->
<!DOCTYPE svg PUBLIC "-//W3C//DTD SVG 1.1//EN" "http://www.w3.org/Graphics/SVG/1.1/DTD/svg11.dtd">
<svg version="1.1" id="Layer_1" xmlns="http://www.w3.org/2000/svg" xmlns:xlink="http://www.w3.org/1999/xlink" x="0px" y="0px"
	 width="300px" height="300px" viewBox="0 0 300 300" enable-background="new 0 0 300 300" xml:space="preserve">
<linearGradient id="SVGID_1_" gradientUnits="userSpaceOnUse" x1="307.178" y1="-90.166" x2="344.5315" y2="-90.166" gradientTransform="matrix(1 0 0 -1 -147.6001 30.1602)">
	<stop  offset="0" style="stop-color:#119BFA"/>
	<stop  offset="0.1652" style="stop-color:#2E8DF9"/>
	<stop  offset="0.3435" style="stop-color:#4682F9"/>
	<stop  offset="0.5336" style="stop-color:#577AF8"/>
	<stop  offset="0.7414" style="stop-color:#6175F8"/>
	<stop  offset="1" style="stop-color:#6474F8"/>
</linearGradient>
<path fill="url(#SVGID_1_)" d="M159.578,101.649v19.868c8.15,2.889,14.604,9.335,17.485,17.487h19.868
	C193.126,120.238,178.345,105.457,159.578,101.649z"/>
<linearGradient id="SVGID_2_" gradientUnits="userSpaceOnUse" x1="249.7014" y1="-118.9121" x2="344.5198" y2="-118.9121" gradientTransform="matrix(1 0 0 -1 -147.6001 30.1602)">
	<stop  offset="0" style="stop-color:#119BFA"/>
	<stop  offset="0.1652" style="stop-color:#2E8DF9"/>
	<stop  offset="0.3435" style="stop-color:#4682F9"/>
	<stop  offset="0.5336" style="stop-color:#577AF8"/>
	<stop  offset="0.7414" style="stop-color:#6175F8"/>
	<stop  offset="1" style="stop-color:#6474F8"/>
</linearGradient>
<path fill="url(#SVGID_2_)" d="M177.056,158.162c-3.939,11.154-14.546,19.158-27.057,19.158c-15.873,0-28.738-12.865-28.738-28.737
	c0-12.506,8.004-23.11,19.158-27.058v-19.861c-21.86,4.44-38.317,23.748-38.317,46.92c0,26.453,21.443,47.896,47.897,47.896
	c23.167,0,42.479-16.457,46.92-38.316h-19.862L177.056,158.162L177.056,158.162z"/>
<linearGradient id="SVGID_3_" gradientUnits="userSpaceOnUse" x1="147.6003" y1="-118.4243" x2="447.5999" y2="-118.4243" gradientTransform="matrix(1 0 0 -1 -147.6001 30.1602)">
	<stop  offset="0" style="stop-color:#119BFA"/>
	<stop  offset="0.1652" style="stop-color:#2E8DF9"/>
	<stop  offset="0.3435" style="stop-color:#4682F9"/>
	<stop  offset="0.5336" style="stop-color:#577AF8"/>
	<stop  offset="0.7414" style="stop-color:#6175F8"/>
	<stop  offset="1" style="stop-color:#6474F8"/>
</linearGradient>
<path fill="url(#SVGID_3_)" d="M297.326,145.473c-2.404-2.808-59.915-68.733-147.327-68.733
	c-87.413,0-144.922,65.925-147.326,68.733L0,148.583l2.673,3.112C5.077,154.504,62.587,220.43,150,220.43
	c87.412,0,144.923-65.926,147.327-68.731l2.673-3.113L297.326,145.473z M212.266,148.583c0,34.333-27.934,62.267-62.267,62.267
	c-34.334,0-62.268-27.934-62.268-62.267s27.936-62.267,62.268-62.267C184.33,86.316,212.266,114.251,212.266,148.583z
	 M12.836,148.579c9.752-10.13,43.521-42.188,92.158-55.916C88.647,105.845,78.152,126,78.152,148.584
	c0,22.568,10.479,42.715,26.805,55.896C56.398,190.732,22.593,158.699,12.836,148.579z M195.003,204.504
	c16.347-13.182,26.842-33.337,26.842-55.921c0-22.57-10.479-42.714-26.803-55.896c48.563,13.747,82.361,45.78,92.121,55.901
	C277.411,158.719,243.638,190.775,195.003,204.504z"/>
<linearGradient id="SVGID_4_" gradientUnits="userSpaceOnUse" x1="27.6047" y1="71.4551" x2="272.3899" y2="71.4551">
	<stop  offset="0" style="stop-color:#119BFA"/>
	<stop  offset="0.1652" style="stop-color:#2E8DF9"/>
	<stop  offset="0.3435" style="stop-color:#4682F9"/>
	<stop  offset="0.5336" style="stop-color:#577AF8"/>
	<stop  offset="0.7414" style="stop-color:#6175F8"/>
	<stop  offset="1" style="stop-color:#6474F8"/>
</linearGradient>
<path fill="url(#SVGID_4_)" d="M149.998,48c-33.305,0-76.029,13.607-107.749,29.917c-5.134,2.936-10.063,5.973-14.645,9.014
	l5.298,7.979c4.409-2.922,9.15-5.843,14.104-8.679c30.35-15.61,71.234-28.652,102.993-28.652c40.41,0,79.806,12.559,117.094,37.331
	l5.297-7.979C234.053,61.465,191.727,48,149.998,48z"/>
<linearGradient id="SVGID_5_" gradientUnits="userSpaceOnUse" x1="27.6067" y1="225.7129" x2="272.3918" y2="225.7129">
	<stop  offset="0" style="stop-color:#119BFA"/>
	<stop  offset="0.1652" style="stop-color:#2E8DF9"/>
	<stop  offset="0.3435" style="stop-color:#4682F9"/>
	<stop  offset="0.5336" style="stop-color:#577AF8"/>
	<stop  offset="0.7414" style="stop-color:#6175F8"/>
	<stop  offset="1" style="stop-color:#6474F8"/>
</linearGradient>
<path fill="url(#SVGID_5_)" d="M267.095,202.256c-4.408,2.924-9.15,5.846-14.103,8.68c-30.342,15.613-71.228,28.652-102.993,28.652
	c-40.41,0-79.809-12.559-117.096-37.33l-5.297,7.979C65.944,235.705,108.27,249.17,150,249.17c33.308,0,76.032-13.609,107.749-29.92
	c5.135-2.936,10.063-5.973,14.643-9.014L267.095,202.256z"/>
</svg>
