<svg xmlns="http://www.w3.org/2000/svg" xmlns:xlink="http://www.w3.org/1999/xlink" xmlns:serif="http://www.serif.com/" width="100%" height="100%" viewBox="0 0 24 24" xml:space="preserve" style="fill-rule:evenodd;clip-rule:evenodd;stroke-linejoin:round;stroke-miterlimit:2;"><path d="M12,8c-0.549,0 -1,0.451 -1,1l0,2c0,0.549 0.451,1 1,1c0.549,0 1,-0.451 1,-1l0,-2c0,-0.549 -0.451,-1 -1,-1Zm0,-4c-3.84,0 -7,3.16 -7,7l0,6c0,3.84 3.16,7 7,7c3.84,0 7,-3.16 7,-7l0,-6c0,-3.84 -3.16,-7 -7,-7Zm5,13c0,2.743 -2.257,5 -5,5c-2.743,0 -5,-2.257 -5,-5l0,-6c0,-2.743 2.257,-5 5,-5c2.743,0 5,2.257 5,5l0,6Z" style="fill-rule:nonzero;"></path></svg>