<svg width="256" height="256" viewBox="0 0 256 256" fill="none" xmlns="http://www.w3.org/2000/svg">
<rect x="1.23077" y="1.23077" width="253.538" height="253.538" rx="4.92308" fill="#09C269" stroke="#09C269" stroke-width="2.46154"/>
<path d="M178.619 73H77.2857C69.381 73 63 79.6686 63 87.9296V182.782L82.7143 162.379H178.714C186.619 162.379 193 155.71 193 147.449V87.9296C192.905 79.6686 186.524 73 178.619 73ZM93.3809 139.885C93.3809 142.074 91.6667 143.866 89.5714 143.866C87.4762 143.866 85.7619 142.074 85.7619 139.885V97.5841C85.7619 95.3944 87.4762 93.6029 89.5714 93.6029C91.6667 93.6029 93.3809 95.3944 93.3809 97.5841V139.885ZM111.095 139.885C111.095 142.074 109.381 143.866 107.286 143.866C105.19 143.866 103.476 142.074 103.476 139.885V111.916C103.476 109.727 105.19 107.935 107.286 107.935C109.381 107.935 111.095 109.727 111.095 111.916V139.885ZM111.571 99.1766C111.571 101.565 109.762 103.456 107.476 103.456H107.095C104.81 103.456 103 101.565 103 99.1766V98.878C103 96.4892 104.81 94.5982 107.095 94.5982H107.476C109.762 94.5982 111.571 96.4892 111.571 98.878V99.1766ZM138.429 142.871C136.714 143.766 134.81 144.164 132.81 144.164C126.238 144.164 122.714 140.88 122.714 134.609V115.4H119.286C118.143 115.4 117.19 114.504 117.19 113.31V113.21C117.19 112.514 117.571 111.817 118.143 111.319L126.619 102.66C127.095 102.162 127.667 101.864 128.333 101.764C129.476 101.764 130.524 102.76 130.524 103.954C130.524 103.954 130.524 103.954 130.524 104.054V108.234H136.619C138.524 108.234 140.048 109.826 140.048 111.817C140.048 113.808 138.524 115.4 136.619 115.4H130.524V134.112C130.524 136.799 131.857 136.998 133.667 136.998C134.429 136.998 135.19 136.899 135.857 136.7C136.333 136.501 136.905 136.501 137.381 136.401C139.095 136.401 140.524 137.894 140.619 139.785C140.429 141.079 139.571 142.373 138.429 142.871ZM161.762 136.7C164.524 136.799 167.286 136.102 169.762 134.809C170.238 134.51 170.81 134.41 171.286 134.41C173.19 134.41 174.714 135.903 174.714 137.894C174.714 137.894 174.714 137.894 174.714 137.994C174.619 139.387 173.857 140.681 172.619 141.278C169.952 142.871 167.095 144.264 161.19 144.264C150.524 144.264 144.048 137.396 144.048 125.95C144.048 112.514 152.619 107.637 159.857 107.637C170.714 107.637 175.667 116.694 175.667 125.055C175.762 127.145 174.143 128.936 172.143 129.036C172.048 129.036 171.952 129.036 171.857 129.036H151.857C152.905 134.012 156.333 136.7 161.762 136.7Z" fill="white"/>
<path d="M160.047 114.703C155.857 114.604 152.333 117.888 151.952 122.268H168.238C167.762 117.888 164.238 114.604 160.047 114.703Z" fill="white"/>
</svg>
